<?xml version="1.0" encoding="utf-8"?>
<!-- Generator: Adobe Illustrator 24.1.2, SVG Export Plug-In . SVG Version: 6.00 Build 0)  -->
<svg version="1.1" id="Capa_1" xmlns="http://www.w3.org/2000/svg" xmlns:xlink="http://www.w3.org/1999/xlink" x="0px" y="0px"
	 viewBox="0 0 153.8 44.4" style="enable-background:new 0 0 153.8 44.4;" xml:space="preserve">
<style type="text/css">
	.st0{fill:#18E3CF;stroke:#18E3CF;stroke-width:0.5;stroke-miterlimit:10;}
	.st1{fill:#18E3CF;}
	.st2{font-family:'Algerian';}
	.st3{font-size:16px;}
	.st4{fill:#18E3CF;stroke:#18E3CF;stroke-width:0.25;stroke-miterlimit:10;}
</style>
<path class="st0" d="M1.5,43.2h151.8H1.5z"/>
<text transform="matrix(1 0 0 1 43.1747 17.2344)" class="st1 st2 st3">From Travel</text>
<text transform="matrix(1 0 0 1 53.4041 38.3555)" class="st1 st2 st3">To Travel</text>
<path class="st4" d="M39.5,25.3l-4.9-4.5c-0.3-0.2-0.6-0.4-1-0.4h-8.4v-2.2h5.4c0.8,0,1.4-0.6,1.4-1.3v-9c0-0.7-0.6-1.3-1.4-1.3
	h-5.4V5.2c0-0.7-0.6-1.3-1.4-1.3s-1.4,0.6-1.4,1.3v1.4H14c-0.4,0-0.7,0.1-1,0.4l-4.9,4.5c-0.5,0.5-0.5,1.3,0,1.8l4.9,4.5
	c0.3,0.2,0.6,0.4,1,0.4h8.4v2.2H17c-0.8,0-1.4,0.6-1.4,1.3v9c0,0.7,0.6,1.3,1.4,1.3h5.4v7.6c0,0.7,0.6,1.3,1.4,1.3s1.4-0.6,1.4-1.3
	V32h8.4c0.4,0,0.7-0.1,1-0.4l4.9-4.5c0.3-0.2,0.4-0.6,0.4-0.9C39.9,25.8,39.7,25.5,39.5,25.3z M11.2,12.4l3.5-3.2h14.6v6.5H14.7
	L11.2,12.4z M33.1,29.4H18.5v-6.5h14.6l3.5,3.2L33.1,29.4z"/>
<path class="st4" d="M55.1,22.4h77.3H55.1z"/>
<path class="st4" d="M39.9,1.6H152H39.9z"/>
</svg>
