<svg height="505pt" viewBox="0 -21 505.02238 505" width="505pt" xmlns="http://www.w3.org/2000/svg"><path d="m369.019531 69.515625c.886719-35.757813 30.476563-64.097656 66.242188-63.4375 35.765625.65625 64.292969 30.058594 63.867187 65.828125-.425781 35.769531-29.648437 64.484375-65.417968 64.289062-35.769532-.195312-64.675782-29.226562-64.710938-65 0-.558593.011719-1.117187.019531-1.679687zm0 0" fill="#00acea"/><path d="m499 231.195312c0 35.898438-29.101562 65-65 65s-65-29.101562-65-65c0-35.898437 29.101562-65 65-65s65 29.101563 65 65zm0 0" fill="#00efd1"/><path d="m369.019531 392.847656c-.007812-.550781-.019531-1.101562-.019531-1.652344.019531-35.714843 28.871094-64.714843 64.585938-64.921874 35.71875-.207032 64.902343 28.460937 65.332031 64.175781.433593 35.710937-28.046875 65.078125-63.757813 65.738281-35.707031.65625-65.253906-27.636719-66.140625-63.339844zm0 0" fill="#00acea"/><path d="m132.390625 104.808594c53.132813 0 100.589844 33.226562 118.765625 83.152344 18.171875 49.929687 3.183594 105.890624-37.515625 140.046874-.335937-21.058593-17.507813-37.953124-38.570313-37.949218h-19.859374v-10.710938c5.128906-3.808594 9.957031-8.007812 14.4375-12.558594 9.921874-9.921874 18.660156-21.410156 24.113281-34.410156 6.507812-15.550781 7.257812-32.683594.910156-48.421875-3.75-9.289062-11.78125-18.449219-23.011719-15.78125l-.320312-.96875c-4.238282-10.398437-12.03125-18.953125-21.988282-24.140625-10.519531-5.261718-22.660156-6.285156-33.910156-2.859375-18.320312 5.289063-34.382812 17.648438-42.953125 34.839844-4.902343 9.945313-7.210937 20.964844-6.707031 32.039063 1.1875 28.800781 17.648438 56.890624 43.5 70.121093v12.851563h-19.582031c-21.058594 0-38.222657 16.890625-38.558594 37.949218-40.699219-34.15625-55.691406-90.117187-37.515625-140.046874 18.175781-49.925782 65.632812-83.152344 118.765625-83.152344zm0 0" fill="#00acea"/><path d="m175.070312 290.058594c21.0625-.003906 38.234376 16.890625 38.570313 37.949218-46.988281 39.441407-115.511719 39.441407-162.5 0 .335937-21.058593 17.5-37.949218 38.558594-37.949218h19.582031v.730468c0 12.679688 10.28125 22.964844 22.964844 22.964844s22.964844-10.285156 22.964844-22.964844v-.730468zm0 0" fill="#00efd1"/><path d="m194.671875 183.957031c6.347656 15.738281 5.597656 32.871094-.910156 48.421875-5.453125 13-14.191407 24.488282-24.113281 34.410156-4.480469 4.550782-9.308594 8.75-14.4375 12.558594v-8.980468c14.332031-8.425782 23.128906-23.8125 23.117187-40.441407v-18.910156l.070313-4.457031c.230468-10.679688-4.96875-20.746094-13.808594-26.742188-3.503906-2.367187-7.496094-3.910156-11.679688-4.519531-22.839844 41.808594-63.910156 45.832031-65.511718 45.96875h-.097657c-.304687 0-.59375.121094-.808593.335937-.210938.214844-.332032.503907-.332032.804688v8.101562c-.007812 16.496094 8.8125 31.738282 23.121094 39.949219v6.75c-25.851562-13.230469-42.3125-41.320312-43.5-70.121093-.503906-11.074219 1.804688-22.09375 6.707031-32.039063 8.570313-17.191406 24.632813-29.550781 42.953125-34.839844 11.25-3.425781 23.390625-2.402343 33.910156 2.859375 9.957032 5.1875 17.75 13.742188 21.988282 24.140625l.320312.96875c11.230469-2.667969 19.261719 6.492188 23.011719 15.78125zm0 0" fill="#4b5d63"/><path d="m109.28125 270.457031c-14.308594-8.210937-23.128906-23.453125-23.121094-39.949219v-8.101562c0-.300781.121094-.589844.332032-.804688.214843-.214843.503906-.335937.808593-.335937h.097657c1.601562-.136719 42.671874-4.160156 65.511718-45.96875 4.183594.609375 8.175782 2.152344 11.679688 4.519531 8.839844 5.996094 14.039062 16.0625 13.808594 26.742188l-.070313 4.457031v18.910156c.011719 16.628907-8.785156 32.015625-23.117187 40.441407-6.859376 4.027343-14.660157 6.171874-22.609376 6.21875-8.183593.078124-16.234374-2.039063-23.320312-6.128907zm0 0" fill="#f7caa5"/><path d="m155.210938 290.058594v.730468c0 12.679688-10.28125 22.964844-22.964844 22.964844s-22.964844-10.285156-22.964844-22.964844v-20.332031c7.085938 4.089844 15.136719 6.207031 23.320312 6.128907 7.949219-.046876 15.75-2.191407 22.609376-6.21875zm0 0" fill="#edb288"/><g fill="#083863"><path d="m415.039062 250.160156c2.34375 2.34375 6.140626 2.34375 8.484376 0l10.476562-10.476562 10.476562 10.476562c2.34375 2.34375 6.144532 2.34375 8.484376 0 2.34375-2.34375 2.34375-6.140625.003906-8.484375l-10.480469-10.480469 10.480469-10.476562c2.339844-2.34375 2.339844-6.140625-.003906-8.484375-2.339844-2.34375-6.140626-2.34375-8.484376 0l-10.476562 10.476563-10.476562-10.476563c-2.34375-2.34375-6.140626-2.34375-8.484376 0s-2.34375 6.140625-.003906 8.484375l10.480469 10.476562-10.480469 10.480469c-2.339844 2.34375-2.339844 6.140625.003906 8.484375zm0 0"/><path d="m422.058594 89.875c2.242187 2.429688 6.023437 2.589844 8.460937.355469l31.914063-29.21875c2.355468-2.253907 2.480468-5.980469.277344-8.386719-2.203126-2.40625-5.925782-2.613281-8.378907-.460938l-27.5 25.179688-12.800781-13.875c-1.445312-1.597656-3.640625-2.296875-5.746094-1.832031-2.105468.46875-3.800781 2.03125-4.4375 4.089843-.632812 2.0625-.113281 4.308594 1.363282 5.878907zm0 0"/><path d="m422.058594 409.875c2.242187 2.429688 6.023437 2.589844 8.460937.355469l31.914063-29.21875c1.632812-1.433594 2.367187-3.636719 1.910156-5.765625-.453125-2.125-2.019531-3.839844-4.101562-4.480469-2.078126-.640625-4.339844-.105469-5.910157 1.398437l-27.5 25.179688-12.800781-13.875c-1.445312-1.597656-3.640625-2.296875-5.746094-1.832031-2.105468.46875-3.800781 2.03125-4.4375 4.089843-.632812 2.0625-.113281 4.308594 1.363282 5.878907zm0 0"/><path d="m363.144531 75.195312c2.242188 37 33.160157 66.84375 70.855469 66.84375 38.203125.003907 69.566406-30.21875 70.972656-68.394531 1.410156-38.179687-27.636718-70.628906-65.734375-73.441406-38.101562-2.8125-71.597656 25.023437-75.808593 62.992187h-26.628907c-3.433593.128907-6.1875 2.886719-6.300781 6.320313v155.679687h-40.046875l20.808594-20.816406c2.34375-2.339844 2.347656-6.140625.003906-8.488281-2.34375-2.34375-6.144531-2.347656-8.488281-.003906l-30 30c-2.34375 2.34375-2.34375 6.140625 0 8.484375l30 30c2.363281 2.203125 6.046875 2.140625 8.332031-.140625 2.285156-2.285157 2.355469-5.96875.152344-8.335938l-18.707031-18.699219h37.945312v155.652344c.113281 3.441406 2.859375 6.210938 6.300781 6.347656h26.621094c4.199219 37.96875 37.679687 65.808594 75.773437 63.011719 38.097657-2.800781 67.148438-35.238281 65.75-73.410156-1.398437-38.171875-32.746093-68.394531-70.945312-68.398437-37.6875 0-68.601562 29.796874-70.855469 66.796874h-20.644531v-150h20.769531c3.050781 36 33.597657 65.011719 70.730469 65.011719 39.210938 0 71-31.789062 71-71 0-39.210937-31.789062-71-71-71-37.121094 0-67.65625 28.988281-70.726562 64.988281h-20.773438v-150zm11.875-5.527343c.800781-32.460938 27.660157-58.191407 60.125-57.597657 32.46875.59375 58.371094 27.285157 57.988281 59.753907-.382812 32.472656-26.90625 58.542969-59.378906 58.371093-32.472656-.171874-58.714844-26.523437-58.753906-59 0-.523437.011719-1.046874.019531-1.527343zm58.980469 262.527343c32.382812.003907 58.714844 26.105469 58.996094 58.488282.28125 32.382812-25.589844 58.941406-57.96875 59.503906-32.378906.566406-59.160156-25.074219-60.007813-57.449219-.007812-.511719-.019531-1.027343-.019531-1.542969.035156-32.566406 26.429688-58.960937 59-59zm0-160c32.585938 0 59 26.417969 59 59 0 32.585938-26.414062 59-59 59s-59-26.414062-59-59c.035156-32.566406 26.429688-58.960937 59-59zm0 0"/><path d="m132.390625 98.808594c-73 0-132.390625 59.386718-132.390625 132.386718-.03125 39.136719 17.28125 76.269532 47.28125 101.402344 39.410156 33.078125 94.417969 40.324219 141.050781 18.582032 46.632813-21.742188 76.445313-68.53125 76.449219-119.984376 0-73-59.390625-132.386718-132.390625-132.386718zm-75.078125 226.566406c1.773438-16.5625 15.730469-29.136719 32.386719-29.179688h14.058593c.996094 5.769532 3.800782 11.070313 8.003907 15.140626 5.414062 5.464843 12.792969 8.535156 20.488281 8.527343 14.171875 0 26-10.667969 28.480469-23.667969h14.339843c16.660157.042969 30.621094 12.613282 32.398438 29.179688-43.917969 35.042969-106.234375 35.042969-150.152344 0zm54.96875-60.113281.160156-.003907c-12.382812-7.1875-19.984375-20.4375-19.941406-34.75v-3.875c26.511719-5.207031 49.59375-21.363281 63.5625-44.488281 1.875.652344 3.652344 1.550781 5.292969 2.671875 7.171875 4.835938 11.382812 12.996094 11.171875 21.644532l-.027344 4.554687v18.910156c-.039062 14.507813-7.734375 27.914063-20.238281 35.265625-5.96875 3.488282-12.75 5.347656-19.660157 5.398438-7.128906.0625-14.140624-1.777344-20.320312-5.328125zm72.21875-54.148438-.015625-4.472656c.28125-12.730469-5.953125-24.726563-16.53125-31.820313-4.257813-2.875-9.113281-4.742187-14.199219-5.46875-2.472656-.339843-4.902344.878907-6.101562 3.070313-20.730469 37.957031-56.988282 42.503906-60.398438 42.847656-3.820312.140625-6.828125 3.316407-6.753906 7.136719v8.101562c-.054688 3.609376.269531 7.214844.96875 10.757813-5.777344-10.597656-9.0625-22.371094-9.609375-34.425781-.472656-10.058594 1.605469-20.074219 6.039063-29.117188 7.558593-15.160156 21.839843-26.730468 39.222656-31.75 10.332031-2.980468 20.527344-2.136718 29.515625 2.445313 8.636719 4.492187 15.398437 11.902343 19.085937 20.910156l.242188.730469c.976562 2.957031 4.050781 4.675781 7.082031 3.957031 1.699219-.402344 10.445313-1.714844 16.054687 12.1875 5.535157 13.710937 5.21875 29.285156-.878906 43.855469-1.363281 3.292968-2.941406 6.496094-4.722656 9.582031.632812-3.199219.96875-6.449219 1-9.714844zm-69 68.632813c5 1.867187 10.953125 2.449218 16.773438 2.449218h.371093c5.714844.0625 11.402344-.777343 16.855469-2.480468v11.074218c-.078125 9.390626-7.707031 16.964844-17.101562 16.96875-4.492188-.003906-8.800782-1.796874-11.96875-4.980468-3.171876-3.183594-4.945313-7.496094-4.929688-11.988282zm102.300781 36.351562c-5.664062-18.882812-23.015625-31.839844-42.730469-31.902344h-13.570312v-1.859374c4.394531-3.519532 8.582031-7.292969 12.539062-11.300782 11.617188-11.617187 20.089844-23.84375 25.328126-36.335937 7.328124-17.5 7.625-36.082031.898437-52.746094-5.085937-12.601563-14.5-19.75-24.816406-19.75h-.027344c-4.835937-10.476563-13.0625-19.019531-23.351563-24.238281-11.867187-5.96875-25.566406-7.183594-38.300781-3.402344-20.597656 5.949219-37.597656 19.714844-46.652343 37.867188-5.316407 10.847656-7.796876 22.867187-7.21875 34.933593 1.261718 30.527344 17.601562 58.902344 43.605468 73.402344v3.429687h-13.804687c-19.710938.066407-37.0625 13.019532-42.722657 31.902344-46.78125-47.097656-46.613281-123.179687.378907-170.066406 46.996093-46.890625 123.074219-46.890625 170.070312 0 46.992188 46.886719 47.160157 122.96875.375 170.066406zm0 0"/></g></svg>