<svg height="488pt" viewBox="0 -9 488 487" width="488pt" xmlns="http://www.w3.org/2000/svg"><path d="m267 29.898438c-8.398438 0-16.199219-4.199219-20.800781-11.097657l-8.800781-13.300781 1.703124-1.101562 8.796876 13.300781c4.300781 6.402343 11.402343 10.199219 19.101562 10.199219h43.199219v2h-43.199219c.101562 0 .101562 0 0 0zm0 0"/><path d="m316 117.898438c-24.800781 0-45-20.199219-45-45 0-24.796876 20.199219-45 45-45s45 20.203124 45 45c0 24.800781-20.199219 45-45 45zm0-88c-23.699219 0-43 19.300781-43 43 0 23.703124 19.300781 43 43 43s43-19.296876 43-43c0-23.699219-19.300781-43-43-43zm0 0"/><path d="m48 276.898438h192v184h-192zm0 0" fill="#ce893d"/><path d="m8 244.898438h264v32h-264zm0 0" fill="#7d4739"/><path d="m176 220.898438h-112c-3.199219 0-6.101562-1.898438-7.398438-4.898438l-40-96 14.796876-6.199219 38 91.097657h106.601562zm0 0" fill="#4e4e4e"/><path d="m336 163.898438 3-1.199219-3-13.800781-65.5 24h-142.5v16h49.601562l102.398438 32 58.601562-23.398438-2.601562-8.601562zm0 0" fill="#0f71c7"/><path d="m408 452.898438v-104h-16v104h-40v16h96v-16zm0 0" fill="#4e4e4e"/><path d="m304 348.300781c.300781-4.199219 3.800781-7.402343 8-7.402343h129.800781l14.199219-57v-135h16v136c0 .703124-.101562 1.300781-.199219 1.902343l-16 64c-.902343 3.597657-4.101562 6.097657-7.800781 6.097657h-144zm0 0" fill="#7b7b7b"/><g fill="#4e4e4e"><path d="m464 180.898438h24v16h-24zm0 0"/><path d="m432 148.898438h32v88h-32zm0 0"/><path d="m424 292.898438 8 56h-120l-8 112h-24v-8l8-144 80.398438-13.398438 54.5-9.101562zm0 0"/></g><path d="m338.601562 197.5-2.601562-8.601562v-40l48-16 16 40 32 112-9.101562 1.5-54.5 9.101562-.398438-2.601562zm0 0" fill="#168de2"/><path d="m253.199219 453.699219h50.800781v15.199219h-50.800781zm0 0" fill="#4e4e4e"/><path d="m48 276.898438h192v9.5h-192zm0 0" fill="#693a2e"/><path d="m267.101562 36.898438h11.5c-19.800781 20.703124-19.101562 53.601562 1.597657 73.402343s53.601562 19.097657 73.402343-1.601562c19.796876-20.699219 19.097657-53.597657-1.601562-73.398438-9.699219-9.300781-22.601562-14.5-36-14.402343-1.898438 0-3.898438.101562-5.800781.300781v-.300781h-43.199219c-5.398438 0-10.398438-2.699219-13.300781-7.097657l-8.898438-13.300781-13.300781 8.898438 8.898438 13.300781c6 8.902343 16 14.199219 26.703124 14.199219zm84.898438 36c0 19.902343-16.101562 36-36 36s-36-16.097657-36-36c0-19.898438 16.101562-36 36-36s36 16.101562 36 36zm0 0"/><path d="m8 284.898438h32v176c0 4.402343 3.601562 8 8 8h256c4.199219 0 7.699219-3.199219 8-7.398438l7.398438-104.601562h72.601562v96h-40v16h96v-16h-40v-96h40c3.699219 0 6.898438-2.5 7.800781-6.097657l16-64c.199219-.601562.199219-1.300781.199219-1.902343v-88h16v-16h-16v-32c0-4.398438-3.601562-8-8-8h-32c-4.398438 0-8 3.601562-8 8v78.902343l-16.300781-57.101562c-.097657-.300781-.199219-.5-.300781-.800781l-16-40c-1.597657-3.898438-5.898438-6-10-4.597657l-48 16c-3.296876 1.097657-5.5 4.199219-5.5 7.597657v1l-57.5 23h-142.398438v16h22.800781l126.800781 39.601562c1.796876.5 3.597657.5 5.398438-.199219l50.601562-20.199219 24.898438 80.898438-71.800781 12c-3.699219.601562-6.5 3.699219-6.699219 7.398438l-8 144 8 .402343h-32v-167.902343h24c4.398438 0 8-3.597657 8-8v-32c0-4.398438-3.601562-8-8-8h-264c-4.398438 0-8 3.601562-8 8v32c0 4.402343 3.601562 8 8 8zm432-128h16v72h-16zm-8 88h24v39l-14.199219 57h-2.800781l-6.800781-47.898438 1.199219-.199219c4.402343-.699219 7.300781-4.800781 6.601562-9.199219 0-.300781-.101562-.601562-.199219-.902343l-11-38.597657c.898438.5 2 .796876 3.199219.796876zm-152.300781-32.5-75.300781-23.5h67.601562c1 0 2-.199219 3-.597657l53-21.199219v21.796876c0 .800781.101562 1.601562.398438 2.402343l.5 1.5zm64.300781-24.699219v-33l35.398438-11.800781 13 32.601562 29.402343 103-47.5 7.898438zm-48.398438 128 120.699219-20.097657 6.5 45.296876h-110.800781c-4.199219 0-7.699219 3.203124-8 7.402343l-7.398438 104.597657h-8.601562zm-63.601562 137.199219h-176v-168h176zm-216-200h248v16h-248zm0 0"/><path d="m64 220.898438h112v-16h-106.699219l-38-91.097657-14.800781 6.199219 40 96c1.398438 3 4.300781 4.898438 7.5 4.898438zm0 0"/></svg>